<svg width="32" xmlns="http://www.w3.org/2000/svg" height="32" viewBox="0 0 66 64"><g fill="#1D1D1B" stroke="#000" stroke-width="1.8"><path d="M41.778 12.625a2.008 2.008 0 00-2.589 1.187 2.009 2.009 0 001.188 2.585c8.772 3.244 14.666 11.702 14.666 21.047 0 12.372-10.08 22.438-22.471 22.438-12.389 0-22.469-10.065-22.469-22.438 0-9.348 5.898-17.808 14.676-21.052a2.007 2.007 0 001.191-2.583 2.009 2.009 0 00-2.588-1.188c-10.354 3.823-17.311 13.8-17.311 24.823 0 14.59 11.888 26.461 26.5 26.461 14.611 0 26.5-11.871 26.5-26.461.001-11.021-6.948-20.993-17.293-24.819z"/><path d="M32.572 39.817c1.113 0 2.014-.9 2.014-2.012V1.917c0-1.112-.9-2.012-2.014-2.012a2.012 2.012 0 00-2.016 2.012v35.887a2.014 2.014 0 002.016 2.013z"/></g></svg>